
<svg width="392" height="79" viewBox="0 0 392 79" fill="none" xmlns="http://www.w3.org/2000/svg">
<g clip-path="url(#clip0_192_89)">
<path d="M76.8898 55.3157L79.5778 52.144C82.0297 55.1625 85.7206 56.6501 89.0406 56.648C93.2206 56.6454 95.9994 54.6736 95.9973 51.4136C95.9949 47.5736 92.9242 46.5656 88.3631 44.8384C83.322 42.9716 78.1806 40.8149 78.1768 34.9049C78.1736 29.8149 82.7811 25.922 88.5911 25.8783C92.3811 25.8759 96.132 27.2635 99.3936 29.8514L96.8557 33.113C94.1643 30.8548 91.1436 29.7567 88.5936 29.7583C85.4236 29.7603 82.5447 31.4921 82.5467 34.7021C82.4988 37.9622 85.5695 39.1202 89.8006 40.7975C95.562 43.0039 100.363 44.5808 100.367 50.9708C100.371 57.3608 94.8531 60.5743 88.9931 60.578C84.7231 60.5808 80.3021 58.9536 76.8898 55.3057L76.8898 55.3157Z" fill="#231F20"/>
<path d="M139.231 26.1861L139.253 60.2661L135.073 60.2687L135.056 34.1587L134.956 34.1588L123.879 53.4158L121.049 53.4176L109.946 34.1747L109.846 34.1747L109.863 60.2847L105.683 60.2874L105.661 26.2074L109.881 26.2047L122.425 48.2268L122.525 48.2267L135.041 26.1887L139.221 26.1861L139.231 26.1861Z" fill="#231F20"/>
<path d="M165.978 51.9491L150.758 51.9587L147.743 60.2607L143.323 60.2635L156.211 26.1753L160.391 26.1726L173.423 60.2443L169.003 60.2472L165.978 51.9491ZM164.635 48.2999L158.385 31.2639L158.284 31.264L152.105 48.3079L164.635 48.2999Z" fill="#231F20"/>
<path d="M196.853 60.2295L188.205 47.225L181.775 47.2291L181.783 60.2391L177.603 60.2417L177.581 26.1617L189.681 26.1541C197.551 26.1491 200.964 30.6569 200.968 36.7069C200.972 42.7569 197.804 45.7789 192.864 46.842L192.864 46.892L201.893 60.2363L196.853 60.2395L196.853 60.2295ZM181.762 43.3891L188.582 43.3848C194.242 43.3812 196.64 40.4996 196.638 36.6096C196.635 32.2896 193.804 29.9914 189.144 29.9944L181.754 29.9991L181.762 43.3891Z" fill="#231F20"/>
<path d="M213.484 29.9789L203.264 29.9854L203.261 26.1454L227.931 26.1297L227.934 29.9697L217.664 29.9762L217.683 60.2162L213.503 60.2189L213.484 29.9789Z" fill="#231F20"/>
<path d="M228.86 55.2192L233.606 49.3561C236.198 52.1845 239.269 53.4325 241.629 53.431C244.409 53.4293 245.468 52.1786 245.467 50.6486C245.466 48.7786 244.265 47.9594 240.374 46.6718C235.193 44.8951 230.052 42.4584 230.047 35.7784C230.044 30.1184 234.981 25.7453 241.181 25.6413C245.641 25.5885 249.682 27.2659 253.044 30.0938L248.488 36.0467C245.606 33.7485 243.395 32.7899 241.475 32.7911C239.555 32.7924 238.356 33.8031 238.357 35.4331C238.308 36.9731 239.559 37.7324 243.3 39.17C249.301 41.4662 253.862 43.0533 253.866 49.7233C253.871 57.7433 246.913 60.6677 241.443 60.6712C237.073 60.6739 232.562 58.9468 228.86 55.2092L228.86 55.2192Z" fill="#231F20"/>
<path d="M275.949 54.0792L263.999 54.0868L262.033 60.1881L253.633 60.1934L266.091 26.1055L273.771 26.1006L286.373 60.1726L277.973 60.1779L275.949 54.0792ZM273.735 47.2706L269.987 35.803L269.888 35.8031L266.195 47.2754L273.735 47.2706Z" fill="#231F20"/>
<path d="M312.461 26.076L300.003 60.164L292.943 60.1684L280.341 26.0964L289.031 26.0909L296.386 48.7962L296.436 48.7962L303.811 26.0815L312.451 26.076L312.461 26.076Z" fill="#231F20"/>
<path d="M314.521 26.0747L322.631 26.0696L322.653 60.1496L314.543 60.1547L314.521 26.0747Z" fill="#231F20"/>
<path d="M356.661 26.0479L356.683 60.1279L348.423 60.1332L335.45 39.6914L335.4 39.6914L335.413 60.1414L327.393 60.1465L327.371 26.0665L335.391 26.0614L348.655 47.033L348.641 26.053L356.661 26.0479Z" fill="#231F20"/>
<path d="M359.942 43.1359C359.936 33.2459 366.311 25.5619 377.211 25.5549C382.111 25.5518 387.482 27.6084 390.995 31.6462L385.288 36.4498C383.507 34.7209 380.826 33.0926 377.176 33.095C372.376 33.098 368.298 36.8006 368.302 43.1306C368.306 48.6506 371.768 53.1584 377.528 53.1547C379.548 53.1535 381.368 52.7223 383.337 51.6611L383.335 47.7711L376.805 47.7752L376.801 41.0052L391.061 40.9961L391.07 56.3061C388.052 58.7081 382.813 60.4914 377.533 60.4947C367.693 60.501 359.959 54.2159 359.952 43.1259L359.942 43.1359Z" fill="#231F20"/>
<path d="M22.0903 8.84053C20.9992 7.13122 20.3671 3.77162 22.0862 2.45053C24.7549 0.398834 27.2973 4.10722 29.8474 4.2956C34.1976 4.61284 39.0132 -2.32022 42.1668 3.33777C45 8.43598 40.5454 16.9688 34.3952 16.6427C31.5651 16.4945 28.7739 14.4963 26.4629 13.0278C24.5522 11.819 22.2102 8.72045 20.2597 7.92169L22.0903 8.83053L22.0903 8.84053Z" fill="#649740"/>
<path d="M57.1189 69.7383C49.2137 77.1933 38.6657 80.49 27.8843 78.1669C18.493 76.1428 8.57996 71.3891 4.05433 62.522C1.97175 58.4633 0.668825 53.8642 1.08592 49.2939C1.57245 43.8336 4.70936 38.9616 8.29688 35.0593C12.2641 30.7468 15.9416 26.7445 20.6093 23.1215C23.4379 20.9197 26.126 17.918 29.7254 17.0057C32.185 16.3841 36.0451 16.4817 38.6456 17.35C38.8657 17.4199 39.0757 17.4998 39.2758 17.5796C42.0765 18.7479 44.8386 22.0161 47.1399 23.9846C52.7229 28.7511 58.1862 33.8976 61.6403 40.4654C62.6015 42.2948 63.3527 44.1543 63.8739 46.014C66.2592 54.4925 64.1147 63.1439 57.1189 69.7383Z" fill="#7EB342"/>
<path d="M63.8639 46.0139C62.9415 58.0445 52.0086 69.2915 40.8205 72.1986C33.9516 73.9829 27.9507 72.5267 22.1382 68.5804C12.7141 62.1764 7.46499 47.8198 11.608 36.8671C15.0023 27.905 23.557 19.5195 33.1058 17.5635C34.9455 17.1923 36.8055 17.1311 38.6356 17.3399C38.8557 17.4098 39.0657 17.4897 39.2658 17.5695C42.0665 18.7378 44.8286 22.006 47.1299 23.9746C52.7129 28.741 58.1762 33.8875 61.6303 40.4553C62.5915 42.2847 63.3427 44.1443 63.8639 46.0039L63.8639 46.0139Z" fill="#97CB56"/>
<path d="M45.991 9.91536C45.0621 11.6359 44.1132 13.3365 43.2343 15.0771C42.645 16.2375 42.0866 18.6978 41.0671 19.4985C38.8982 21.1999 32.5578 20.6639 29.9676 20.3755C25.7773 19.9182 24.7152 16.5889 22.6232 13.4302C21.5522 11.8109 18.7609 9.81265 19.2395 7.64235C20.1968 3.32174 24.2988 6.41913 26.6883 5.68762C27.8181 5.3369 28.917 3.5962 30.1166 3.04544C31.6162 2.35449 33.1359 1.94352 34.6965 2.79253C36.0269 3.52168 36.7583 5.71122 38.3382 5.57022C39.5382 5.45945 41.1871 3.84841 42.527 3.60755C46.6665 2.84492 47.5891 6.91434 45.971 9.90537L45.991 9.91536Z" fill="#7EB342"/>
<path d="M24.8566 18.8887C26.1669 19.3779 27.6269 19.377 29.0069 19.3861C30.5669 19.3951 32.117 19.5241 33.6671 19.6231C36.8472 19.8211 40.2572 19.919 43.2865 18.747C44.6462 18.2262 44.0548 16.0165 42.6751 16.5474C39.8158 17.6492 36.6657 17.5212 33.6656 17.3431C32.3356 17.264 31.0055 17.1248 29.6655 17.1057C28.2554 17.0866 26.7955 17.1775 25.4552 16.6784C24.0749 16.1692 23.4863 18.3696 24.8466 18.8788L24.8566 18.8887Z" fill="#353635"/>
<path d="M24.2072 19.7591C26.8681 21.0674 29.9378 20.7155 32.8079 20.8136C36.438 20.9313 40.168 20.899 43.6773 19.8567C45.087 19.4358 44.4856 17.2362 43.0659 17.6571C39.8665 18.5992 36.4965 18.6213 33.1865 18.5434C30.6864 18.475 27.6667 18.9269 25.346 17.7884C24.0256 17.1392 22.8768 19.1099 24.1972 19.7591L24.2072 19.7591Z" fill="#454545"/>
<path d="M38.6 39.92C38.1598 39.6603 37.7897 39.3705 37.5895 39.1407C37.3293 38.8408 35.0384 37.3923 35.0385 37.4723L35.0237 45.7123C35.9739 46.0517 36.8841 46.4211 37.7544 46.8206C38.6246 47.22 39.3949 47.6795 40.0653 48.2191C40.7356 48.7587 41.266 49.3883 41.6665 50.1181C42.0669 50.8478 42.2675 51.7177 42.2681 52.7377C42.2689 53.8477 42.0795 54.7978 41.69 55.6081C41.3005 56.4183 40.7809 57.0986 40.1113 57.6691C39.4516 58.2295 38.6719 58.67 37.7921 59.0005C36.9023 59.3311 35.9725 59.5517 34.9926 59.6823L34.9943 62.3723L33.3145 62.7234L33.2926 59.8034L33.1026 59.8035C32.5226 59.8039 31.8326 59.7543 31.0325 59.6648C30.2325 59.5754 29.4624 59.3858 28.7322 59.1063C28.002 58.8268 27.3818 58.4272 26.8614 57.9075C25.9008 56.9381 25.6796 54.9482 27.2693 54.5372C29.029 54.0861 29.6603 56.1657 30.6309 57.1151C31.2313 57.6947 32.1115 58.0242 33.2816 58.1034L33.276 49.4134C32.3758 49.074 31.5056 48.6945 30.6553 48.2951C29.8151 47.8956 29.0748 47.4061 28.4244 46.8465C27.774 46.2869 27.2636 45.6372 26.8732 44.8875C26.4827 44.1377 26.2921 43.2578 26.2915 42.2278C26.2908 41.1978 26.4803 40.3077 26.8498 39.5375C27.2193 38.7773 27.7289 38.1369 28.3585 37.6265C28.9882 37.1161 29.728 36.7157 30.5678 36.4251C31.4076 36.1346 32.2975 35.944 33.2274 35.8534L33.2256 33.0034L35.0655 32.7923L35.0474 35.7823C35.6074 35.8019 36.2574 35.8515 37.0075 35.931C37.7575 36.0206 38.4676 36.1901 39.1378 36.4397C39.808 36.6993 40.3682 37.0589 40.8285 37.5286C41.2888 37.9983 41.5192 38.6082 41.5197 39.3682C41.5207 41.0782 39.8205 40.6293 38.61 39.92L38.6 39.92ZM29.6907 40.9557C29.691 41.5457 29.7914 42.0656 29.9816 42.4955C30.1719 42.9354 30.4422 43.3152 30.7624 43.635C31.0926 43.9648 31.4628 44.2446 31.8929 44.4843C32.3231 44.724 32.7732 44.9437 33.2333 45.1534L33.2085 37.4735C32.7085 37.5338 32.2486 37.6541 31.8187 37.8343C31.3888 38.0146 31.0189 38.2548 30.7091 38.545C30.3993 38.8452 30.1495 39.1854 29.9598 39.5855C29.77 39.9856 29.6803 40.4357 29.6807 40.9557L29.6907 40.9557ZM38.7889 53.9799C38.7886 53.4199 38.6783 52.93 38.468 52.5101C38.2577 52.0902 37.9775 51.7204 37.6273 51.4006C37.2771 51.0809 36.8669 50.8011 36.4168 50.5714C35.9566 50.3417 35.4865 50.132 35.0064 49.9423L34.9915 58.0223C35.5214 57.932 36.0213 57.7717 36.4812 57.5414C36.9511 57.3111 37.3509 57.0308 37.6907 56.6906C38.0304 56.3504 38.3002 55.9502 38.4999 55.5001C38.6896 55.05 38.7893 54.5399 38.7889 53.9799Z" fill="#454545"/>
<path d="M23.9558 17.4993C24.1669 19.3192 21.8174 20.0007 20.4968 19.1515C19.2263 18.3324 20.3053 16.8017 21.4753 16.7809C22.5453 16.7502 23.2762 18.1798 23.7867 18.9395C24.1871 19.5492 25.1767 18.9786 24.7763 18.3588C23.9255 17.0594 22.8845 15.42 21.0846 15.6612C19.5148 15.8722 18.2059 17.623 19.0668 19.1625C20.5285 21.8015 25.4678 20.7084 25.1058 17.4986C25.0253 16.7787 23.8853 16.7694 23.9658 17.4993L23.9558 17.4993Z" fill="#454545"/>
<path d="M24.6858 17.6388C23.4354 17.0096 22.7244 15.35 23.6937 14.2194C23.8036 14.0894 23.9335 13.9593 24.0734 13.8692C24.2034 13.7791 24.0734 13.8692 23.9534 13.7793C24.0534 13.8592 24.1036 14.1892 24.1338 14.3592C24.2343 15.1591 24.1748 15.9791 24.1053 16.7792C24.0755 17.0992 24.0357 17.4192 23.9859 17.7392C23.966 17.8493 23.946 17.9593 23.9261 18.0593C23.8663 18.3193 24.006 17.9392 24.266 17.8391C24.456 17.889 24.636 17.9388 24.8261 17.9887C24.3157 17.459 23.5062 18.2696 24.0166 18.7992C24.1467 18.9391 24.3867 19.019 24.5767 18.9489C25.2865 18.6784 25.2156 17.2685 25.2752 16.6584C25.3745 15.5784 25.4837 14.3083 25.0231 13.2886C24.4423 12.019 23.1429 13.0898 22.6334 13.7601C21.4144 15.3509 22.4659 17.7802 24.1365 18.6192C24.7967 18.9487 25.366 17.9684 24.7158 17.6288L24.6858 17.6388Z" fill="#454545"/>
<path d="M23.8459 17.7294C23.4966 18.9696 22.5372 19.9302 21.6378 20.8108C20.5085 21.9115 19.2792 22.9223 18.1599 24.043C16.2511 25.9542 14.6926 28.4252 15.8344 31.1545C16.1148 31.8243 17.2146 31.5336 16.9342 30.8538C15.7323 27.9445 18.0809 25.643 20.0597 23.8018C21.8287 22.1606 24.2676 20.4791 24.956 18.0287C25.1556 17.3185 24.0554 17.0192 23.8559 17.7294L23.8459 17.7294Z" fill="#454545"/>
<path d="M23.7262 18.2895C24.1571 19.7792 22.9678 20.84 22.0585 21.8505C21.229 22.7711 20.5597 23.8315 20.0004 24.9319C18.9118 27.1025 18.1436 29.973 19.8049 32.042C20.2653 32.6117 21.0648 31.8012 20.6144 31.2315C18.9331 29.1425 20.7009 25.7014 21.9597 23.8406C23.1886 22.0198 25.5576 20.4783 24.826 17.9888C24.6156 17.2789 23.5157 17.5896 23.7262 18.2895Z" fill="#454545"/>
</g>
<defs>
<clipPath id="clip0_192_89">
<rect width="390.04" height="77.8" fill="white" transform="translate(0.975342 1.1239) rotate(-0.0363958)"/>
</clipPath>
</defs>
</svg>
